# xmcd
#
# Track frame offsets:
#	150
#	12577
#	16092
#	35940
#	62770
#	73585
#	97910
#	121972
#	144115
#	171807
#	193782
#	236325
#
# Disc length: 3255 seconds
#
# Revision: 1
# Processed by: cddbd v1.5.1PL0 Copyright (c) Steve Scherf et al.
# Submitted via: CDex 1.50Beta5
#
DISCID=9c0cb50c
DTITLE=根谷美智子 - To Heart-Piece Of Heart-
DYEAR=1999
DGENRE=Game
TTITLE0=傍らにいるマルチ
TTITLE1=ピース・オブ・ハート
TTITLE2=西音寺女子学園
TTITLE3=いつものバス停で
TTITLE4=セリオの三週間
TTITLE5=佐藤雅史について
TTITLE6=メイドロボのくせに
TTITLE7=答え
TTITLE8=寂しくて嬉しくて
TTITLE9=がんばってください
TTITLE10=涙
TTITLE11=エンディング
EXTD=
EXTT0=
EXTT1=
EXTT2=
EXTT3=
EXTT4=
EXTT5=
EXTT6=
EXTT7=
EXTT8=
EXTT9=
EXTT10=
EXTT11=
PLAYORDER=
